<svg width="210" height="65" viewBox="0 0 210 65" fill="none" xmlns="http://www.w3.org/2000/svg">
<path fill-rule="evenodd" clip-rule="evenodd" d="M104.499 1.22604C104.855 0.934665 105.364 0.923916 105.732 1.2C107.447 2.48651 110.687 4.90256 115.538 4.90566C115.604 4.90498 115.672 4.91099 115.738 4.92392C115.815 4.93886 115.889 4.96266 115.959 4.99422C116.15 5.08051 116.306 5.22271 116.408 5.39675C116.497 5.54583 116.548 5.71981 116.548 5.90564V11.1132L116.547 11.1352L116.547 20.2264C116.547 20.6822 116.361 21.1623 116.169 21.5584C115.96 21.9906 115.67 22.4725 115.325 22.9742C114.633 23.9797 113.679 25.1305 112.598 26.2189C111.519 27.3058 110.287 28.3565 109.034 29.1423C107.802 29.9147 106.442 30.5 105.132 30.5C103.822 30.5 102.462 29.9147 101.23 29.1423C99.9771 28.3565 98.7451 27.3058 97.6654 26.2189C96.5843 25.1305 95.6303 23.9797 94.9391 22.9742C94.5942 22.4725 94.3033 21.9906 94.0945 21.5584C93.9031 21.1623 93.7168 20.6822 93.7168 20.2264V5.90566C93.7168 5.35338 94.1645 4.90566 94.7168 4.90566C99.2434 4.90566 102.986 2.46389 104.499 1.22604ZM105.145 3.25533C106.781 4.44968 109.527 6.23343 113.345 6.7565L105.118 15.3259L101.5 11.708C101.312 11.5204 101.058 11.4151 100.793 11.4151C100.528 11.4151 100.273 11.5204 100.086 11.708L97.916 13.8778C97.5344 14.2594 97.5244 14.8751 97.8936 15.2688L104.403 22.2122C104.588 22.4098 104.846 22.5238 105.116 22.5282C105.387 22.5325 105.648 22.4269 105.84 22.2354L114.547 13.5281V20.2264C114.547 20.224 114.547 20.2235 114.546 20.225L114.545 20.2317C114.537 20.2647 114.504 20.407 114.369 20.6882C114.218 21.0005 113.985 21.3921 113.677 21.8412C113.061 22.7373 112.186 23.7964 111.179 24.8094C110.172 25.8239 109.058 26.7662 107.971 27.4479C106.862 28.1431 105.888 28.5 105.132 28.5C104.376 28.5 103.401 28.1431 102.293 27.4479C101.206 26.7662 100.092 25.8239 99.0844 24.8094C98.0782 23.7964 97.2032 22.7373 96.5872 21.8412C96.2785 21.3921 96.0461 21.0005 95.8952 20.6882C95.7594 20.407 95.7266 20.2647 95.719 20.2317C95.7172 20.2238 95.7168 20.2222 95.7168 20.2264V6.87173C99.9035 6.5885 103.331 4.59483 105.145 3.25533ZM114.547 10.6996V8.39198L105.854 17.4472C105.668 17.6411 105.411 17.7519 105.143 17.7546C104.874 17.7574 104.615 17.6518 104.425 17.4618L100.793 13.8293L100.015 14.6073L105.156 20.0909L114.547 10.6996Z" fill="#C91235"/>
<path fill-rule="evenodd" clip-rule="evenodd" d="M98.6226 43.6605C98.6226 44.1398 98.234 44.5284 97.7546 44.5284C97.2753 44.5284 96.8867 44.1398 96.8867 43.6605C96.8867 43.1811 97.2753 42.7925 97.7546 42.7925C98.234 42.7925 98.6226 43.1811 98.6226 43.6605ZM97.6226 43.6605C97.6226 43.5875 97.6817 43.5284 97.7546 43.5284C97.8276 43.5284 97.8867 43.5875 97.8867 43.6605C97.8867 43.7334 97.8276 43.7925 97.7546 43.7925C97.6817 43.7925 97.6226 43.7334 97.6226 43.6605Z" fill="#C91235"/>
<path fill-rule="evenodd" clip-rule="evenodd" d="M90.2453 38.725V40.1886H88.3398C87.7876 40.1886 87.3398 40.6363 87.3398 41.1886V46.9999C87.3398 47.5522 87.7876 47.9999 88.3398 47.9999H100.227C100.779 47.9999 101.227 47.5522 101.227 46.9999V41.1886C101.227 40.6363 100.779 40.1886 100.227 40.1886H99.1887V31.9435C99.1887 31.483 99.003 31.0239 98.8195 30.6587C98.6208 30.2633 98.3494 29.8353 98.0432 29.4009C97.4293 28.53 96.6152 27.5493 95.7923 26.6167C94.1437 24.7483 92.3898 22.9945 91.9532 22.5579L91.9524 22.5571C91.3713 21.976 90.7267 21.6256 90.0755 21.4962V12.8491C90.0755 12.0721 89.9152 11.3902 89.5532 10.8647C89.1745 10.3151 88.6213 10.0087 88.0269 9.95465C86.9241 9.8544 85.8722 10.6174 85.5229 11.6654C85.3055 12.3174 84.436 14.9259 83.6205 17.4814C83.2128 18.7586 82.8167 20.0289 82.5216 21.0374C82.3744 21.5407 82.2499 21.9872 82.1614 22.3405C82.1172 22.5166 82.0798 22.6785 82.0527 22.8175C82.0296 22.9359 82 23.1051 82 23.2642V23.2661C82 23.7026 82 25.0209 82.0551 26.3436C82.0826 27.0044 82.1245 27.6819 82.1893 28.2581C82.2217 28.5457 82.2613 28.8219 82.3109 29.0651C82.357 29.2905 82.425 29.5578 82.5395 29.7869C82.6541 30.0161 82.8994 30.3258 83.12 30.5957C83.3737 30.9059 83.706 31.2936 84.0846 31.7269C84.7961 32.5409 85.6928 33.54 86.5836 34.5324L86.7581 34.727C87.7091 35.7866 88.6383 36.8236 89.3297 37.6224C89.6766 38.0231 89.9543 38.3533 90.1423 38.5916C90.1828 38.643 90.217 38.6873 90.2453 38.725ZM87.6308 12.0236C87.531 12.0927 87.4555 12.192 87.4204 12.2974C87.2035 12.9482 86.3373 15.5466 85.5258 18.0895C85.1197 19.3618 84.7293 20.6139 84.4412 21.5989C84.2969 22.0924 84.1807 22.5104 84.1014 22.8267C84.0616 22.9854 84.0334 23.1095 84.0158 23.2C84.0056 23.252 84.0015 23.2805 84 23.2909C84.0001 23.7485 84.0011 25.0067 84.0534 26.2603C84.0801 26.9014 84.1196 27.5258 84.1768 28.0345C84.2055 28.2893 84.2371 28.5014 84.2705 28.665C84.2996 28.8074 84.3224 28.8739 84.328 28.89L84.3287 28.8924L84.3318 28.8964L84.3385 28.9057C84.3678 28.9464 84.4623 29.0777 84.6684 29.3297C84.9012 29.6144 85.2165 29.9828 85.5905 30.4107C86.2928 31.2143 87.1809 32.2038 88.075 33.1999L88.2466 33.3911C89.1943 34.4471 90.1365 35.4985 90.8419 36.3135C91.1935 36.7197 91.4955 37.0777 91.7126 37.353C91.8196 37.4886 91.9183 37.6197 91.9946 37.7341C92.0317 37.7898 92.0765 37.861 92.1159 37.9385L92.1181 37.9429C92.1391 37.9833 92.2453 38.1886 92.2453 38.4529V40.1886H97.1887V31.9435C97.1887 31.9493 97.1885 31.9485 97.1866 31.9403C97.1797 31.9117 97.151 31.7926 97.0324 31.5568C96.8955 31.2843 96.6855 30.9461 96.4085 30.5532C95.8562 29.7696 95.0971 28.8517 94.2927 27.94C92.6876 26.1209 90.9709 24.404 90.5382 23.9713C90.0015 23.4346 89.5655 23.4012 89.2968 23.4622C88.9932 23.5311 88.7152 23.761 88.5714 24.0658C88.4343 24.3563 88.4479 24.6426 88.6057 24.8793C89.3142 25.9422 90.3663 27.6668 90.8009 28.3912C91.0851 28.8648 90.9315 29.4791 90.458 29.7632C89.9844 30.0474 89.3701 29.8938 89.086 29.4202C88.6527 28.6981 87.6216 27.0089 86.9416 25.9887C86.3376 25.0827 86.3729 24.0383 86.7626 23.2123C87.0341 22.637 87.4919 22.1317 88.0755 21.8091V12.8491C88.0755 12.3243 87.9645 12.084 87.9061 11.9993C87.8678 11.9435 87.8509 11.9458 87.8466 11.9464C87.8173 11.9437 87.7341 11.9521 87.6308 12.0236ZM89.3398 42.1886V45.9999H99.2266V42.1886H89.3398Z" fill="#C91235"/>
<path fill-rule="evenodd" clip-rule="evenodd" d="M111.641 43.3938C111.641 43.8731 112.03 44.2617 112.509 44.2617C112.989 44.2617 113.377 43.8731 113.377 43.3938C113.377 42.9145 112.989 42.5259 112.509 42.5259C112.03 42.5259 111.641 42.9145 111.641 43.3938ZM112.641 43.3938C112.641 43.3209 112.582 43.2617 112.509 43.2617C112.436 43.2617 112.377 43.3209 112.377 43.3938C112.377 43.4667 112.436 43.5259 112.509 43.5259C112.582 43.5259 112.641 43.4667 112.641 43.3938Z" fill="#C91235"/>
<path fill-rule="evenodd" clip-rule="evenodd" d="M111.075 31.6769V39.922H110.037C109.485 39.922 109.037 40.3697 109.037 40.922V46.7333C109.037 47.2856 109.485 47.7333 110.037 47.7333H121.924C122.476 47.7333 122.924 47.2856 122.924 46.7333V40.922C122.924 40.3697 122.476 39.922 121.924 39.922H120.019V38.4584C120.047 38.4207 120.081 38.3764 120.122 38.325C120.31 38.0867 120.587 37.7565 120.934 37.3558C121.626 36.557 122.555 35.52 123.506 34.4604L123.68 34.266C124.571 33.2735 125.468 32.2744 126.179 31.4603C126.558 31.027 126.89 30.6393 127.144 30.3291C127.365 30.0592 127.61 29.7495 127.724 29.5203C127.839 29.2912 127.907 29.0239 127.953 28.7985C128.003 28.5553 128.042 28.2791 128.075 27.9915C128.139 27.4153 128.181 26.7378 128.209 26.077C128.264 24.7543 128.264 23.436 128.264 22.9995V22.9976C128.264 22.8385 128.234 22.6693 128.211 22.5509C128.184 22.4119 128.147 22.25 128.103 22.0739C128.014 21.7206 127.889 21.2741 127.742 20.7708C127.447 19.7623 127.051 18.492 126.643 17.2148C125.828 14.6593 124.958 12.0509 124.741 11.3989C124.392 10.3509 123.34 9.58779 122.237 9.68805C121.643 9.74209 121.089 10.0485 120.711 10.5981C120.349 11.1236 120.188 11.8055 120.188 12.5825V21.2296C119.537 21.359 118.893 21.7094 118.312 22.2905L118.311 22.2913C117.874 22.7279 116.12 24.4817 114.472 26.3501C113.649 27.2827 112.835 28.2634 112.221 29.1343C111.915 29.5687 111.643 29.9967 111.444 30.3921C111.261 30.7573 111.075 31.2164 111.075 31.6769ZM122.844 12.0308C122.808 11.9254 122.733 11.8261 122.633 11.757C122.53 11.6855 122.447 11.6771 122.417 11.6798C122.413 11.6792 122.396 11.6769 122.358 11.7327C122.299 11.8174 122.188 12.0577 122.188 12.5825V21.5425C122.772 21.8651 123.23 22.3704 123.501 22.9457C123.891 23.7717 123.926 24.8161 123.322 25.7221C122.642 26.7423 121.611 28.4315 121.178 29.1536C120.894 29.6272 120.28 29.7808 119.806 29.4966C119.332 29.2125 119.179 28.5982 119.463 28.1246C119.898 27.4002 120.95 25.6756 121.658 24.6127C121.816 24.376 121.83 24.0897 121.693 23.7992C121.549 23.4944 121.271 23.2645 120.967 23.1956C120.698 23.1346 120.262 23.168 119.726 23.7047C119.293 24.1374 117.576 25.8543 115.971 27.6734C115.167 28.5851 114.408 29.503 113.855 30.2866C113.578 30.6795 113.368 31.0177 113.231 31.2902C113.113 31.526 113.084 31.6451 113.077 31.6737C113.076 31.6774 113.076 31.6796 113.076 31.6803C113.075 31.6813 113.075 31.6801 113.075 31.6769V39.922H118.019V38.1863C118.019 37.922 118.125 37.7167 118.146 37.6763L118.148 37.6719C118.187 37.5943 118.232 37.5232 118.269 37.4675C118.346 37.3531 118.444 37.222 118.551 37.0864C118.768 36.8111 119.07 36.4531 119.422 36.0469C120.127 35.2319 121.07 34.1805 122.017 33.1245L122.189 32.933C123.083 31.937 123.971 30.9476 124.673 30.1441C125.047 29.7162 125.363 29.3478 125.596 29.0631C125.802 28.8111 125.896 28.6798 125.925 28.6391C125.931 28.6318 125.934 28.6273 125.935 28.6257L125.936 28.6234C125.941 28.6073 125.964 28.5408 125.993 28.3984C126.027 28.2348 126.058 28.0227 126.087 27.7679C126.144 27.2592 126.184 26.6348 126.211 25.9937C126.263 24.7401 126.264 23.4822 126.264 23.0245C126.262 23.0141 126.258 22.9853 126.248 22.9334C126.231 22.8429 126.202 22.7188 126.163 22.5601C126.083 22.2438 125.967 21.8258 125.823 21.3323C125.535 20.3473 125.144 19.0952 124.738 17.8229C123.927 15.28 123.06 12.6816 122.844 12.0308ZM120.924 41.922V45.7333H111.037V41.922H120.924Z" fill="#C91235"/>
</svg>
