<svg width="210" height="65" viewBox="0 0 210 65" fill="none" xmlns="http://www.w3.org/2000/svg">
<path fill-rule="evenodd" clip-rule="evenodd" d="M130.022 9.10742L124.984 4.07007L103.955 26.0463L95.5329 17.0737L90.4209 22.0418L103.945 36.2416L130.022 9.10742ZM103.941 28.9537L125.016 6.92996L127.221 9.13524L103.951 33.3485L93.2346 22.0962L95.4674 19.9263L103.941 28.9537ZM86 25C86 15.6112 93.6112 8 103 8C107.283 8 111.194 9.58268 114.184 12.1965C114.6 12.56 115.231 12.5177 115.595 12.1019C115.958 11.6861 115.916 11.0543 115.5 10.6908C112.16 7.77052 107.786 6 103 6C92.5066 6 84 14.5066 84 25C84 35.4934 92.5066 44 103 44C113.493 44 122 35.4934 122 25C122 23.9803 121.92 22.9786 121.765 22.0012C121.678 21.4558 121.166 21.0837 120.62 21.1702C120.075 21.2568 119.703 21.7691 119.789 22.3146C119.928 23.1887 120 24.0856 120 25C120 34.3888 112.389 42 103 42C93.6112 42 86 34.3888 86 25Z" fill="#C91235"/>
</svg>
