<svg width="210" height="65" viewBox="0 0 210 65" fill="none" xmlns="http://www.w3.org/2000/svg">
<path fill-rule="evenodd" clip-rule="evenodd" d="M96.1171 11.5076L110.333 3L109.055 9.06471C113.499 10.0177 121.062 13.9972 122.846 23.8493C122.945 24.3928 122.584 24.9131 122.04 25.0116C121.497 25.11 120.977 24.7493 120.878 24.2058C119.142 14.6237 111.331 11.2915 107.745 10.87L106.658 10.7421L107.432 7.06682L99.3216 11.9207L105.789 18.5227L106.039 14.7244L107.077 14.8368L106.97 15.8208C107.077 14.8368 107.077 14.8369 107.078 14.8369L107.079 14.8371L107.082 14.8374L107.091 14.8384L107.115 14.8414C107.135 14.8439 107.161 14.8474 107.193 14.8522C107.259 14.8617 107.349 14.8763 107.462 14.8976C107.687 14.9402 108.002 15.01 108.382 15.1212C109.141 15.343 110.168 15.7323 111.259 16.4056C113.461 17.7658 115.873 20.2588 116.866 24.7198C116.986 25.2589 116.646 25.7931 116.107 25.9131C115.568 26.0331 115.033 25.6933 114.913 25.1542C114.05 21.2751 112.002 19.2151 110.208 18.1073C109.333 17.567 108.507 17.247 107.89 17.0612L107.491 23.1176L96.1171 11.5076ZM122.464 26.2462L122.91 42.8073L118.251 38.7204C115.241 42.1269 108.066 46.7669 98.6036 43.4926C98.0817 43.312 97.805 42.7424 97.9857 42.2205C98.1663 41.6986 98.7358 41.4219 99.2577 41.6025C108.46 44.7872 115.194 39.6125 117.319 36.6938L117.964 35.8085L120.788 38.2853L120.533 28.8367L111.608 31.2373L114.796 33.3174L114.19 34.1662L113.376 33.5849C114.19 34.1662 114.189 34.1667 114.189 34.1672L114.188 34.1683L114.186 34.1709L114.181 34.1777L114.167 34.1975C114.161 34.2051 114.155 34.2141 114.147 34.2242C114.139 34.235 114.129 34.2471 114.119 34.2606C114.079 34.3127 114.022 34.3844 113.948 34.4722C113.8 34.6476 113.585 34.888 113.302 35.1649C112.736 35.7174 111.894 36.4219 110.772 37.0422C108.507 38.2951 105.152 39.175 100.777 37.8533C100.248 37.6935 99.9491 37.1355 100.109 36.6068C100.269 36.0781 100.827 35.779 101.355 35.9387C105.159 37.0881 107.959 36.3124 109.804 35.292C110.704 34.7944 111.388 34.2315 111.852 33.7846L106.769 30.4678L122.464 26.2462ZM82.0005 33.4265L96.3619 41.6862L100.949 26.0939L95.467 28.7C95.3281 28.0706 95.2046 27.1936 95.2495 26.1664C95.3415 24.06 96.1404 21.2668 99.1056 18.621C99.5177 18.2533 99.5537 17.6212 99.186 17.2091C98.8183 16.797 98.1861 16.761 97.7741 17.1287C94.3641 20.1714 93.3643 23.4928 93.2514 26.0791C93.1955 27.3594 93.3567 28.446 93.5332 29.2166C93.6216 29.6026 93.7144 29.9117 93.7871 30.1291C93.8234 30.2379 93.8549 30.324 93.8783 30.3856C93.89 30.4163 93.8998 30.441 93.9072 30.4593L93.9165 30.4821L93.9197 30.4898L93.9209 30.4928L93.9215 30.494C93.9217 30.4946 93.9219 30.4951 94.8424 30.1043L93.9219 30.4951L94.3297 31.4553L97.7675 29.8208L95.1593 38.6874L86.9657 33.975L90.5518 32.8582L90.1329 31.8464C88.7516 28.5106 87.85 20.0662 95.368 13.8766C95.7944 13.5256 95.8555 12.8954 95.5044 12.469C95.1534 12.0427 94.5232 11.9816 94.0968 12.3326C86.367 18.6965 86.5819 27.239 87.918 31.5836L82.0005 33.4265Z" fill="#C91235"/>
</svg>
