<svg width="210" height="65" viewBox="0 0 210 65" fill="none" xmlns="http://www.w3.org/2000/svg">
<path fill-rule="evenodd" clip-rule="evenodd" d="M92 1H112.999C112.999 1 113 1 113 2V1H119V13.9471L110.822 21.2642C115.648 23.4738 119 28.3454 119 34C119 41.732 112.732 48 105 48C97.268 48 91 41.732 91 34C91 28.4538 94.2251 23.6608 98.9022 21.3942L91 13.931V1H92ZM117 3H114V15.7371L117 13.0529V3ZM112 3V17.5266L108.687 20.4906C107.512 20.1707 106.276 20 105 20C103.597 20 102.242 20.2064 100.964 20.5905L98 17.7912V3H112ZM96 3V15.9023L93 13.069V3H96ZM105 22C106.464 22 107.867 22.2622 109.164 22.7422L109.167 22.7452L109.168 22.7438C113.741 24.4377 117 28.8383 117 34C117 40.6274 111.627 46 105 46C98.3726 46 93 40.6274 93 34C93 27.3726 98.3726 22 105 22ZM105 24L108.362 29.3724L114.51 30.9098L110.44 35.7676L110.878 42.0902L105 39.72L99.122 42.0902L99.5598 35.7676L95.4893 30.9098L101.638 29.3724L105 24ZM107.094 31.1171L110.925 32.0748L108.389 35.1012L108.662 39.0401L105 37.5635L101.338 39.0401L101.611 35.1012L99.0748 32.0748L102.905 31.1171L105 27.7701L107.094 31.1171Z" fill="#C91235"/>
</svg>
