<svg width="210" height="65" viewBox="0 0 210 65" fill="none" xmlns="http://www.w3.org/2000/svg">
<path fill-rule="evenodd" clip-rule="evenodd" d="M127.218 2.23214C127.506 2.4729 127.635 2.85514 127.552 3.22163L119.091 40.4524C119.022 40.7559 118.815 41.01 118.532 41.1398C118.249 41.2695 117.922 41.2601 117.647 41.1143L106.629 35.2734L99.0822 47.5245C98.8476 47.9053 98.3886 48.0841 97.9582 47.9622C97.5278 47.8402 97.2308 47.4473 97.2308 47V30.2912L82.5316 22.4989C82.1912 22.3185 81.9848 21.9585 82.0009 21.5735C82.017 21.1886 82.2529 20.8471 82.6072 20.6958L126.184 2.08041C126.53 1.93276 126.929 1.99138 127.218 2.23214ZM99.2308 31.3515V43.4701L104.858 34.3347L99.2308 31.3515ZM85.3182 21.7125L98.0666 28.4707L121.793 6.13123L85.3182 21.7125ZM124.875 5.9759L99.9331 29.4602L117.43 38.7355L124.875 5.9759ZM93.8931 33.2774C94.265 33.6857 94.2356 34.3182 93.8273 34.6901L88.3273 39.7008C87.919 40.0727 87.2866 40.0433 86.9146 39.635C86.5427 39.2267 86.5721 38.5943 86.9804 38.2223L92.4804 33.2117C92.8887 32.8397 93.5211 32.8692 93.8931 33.2774ZM95.9763 38.2544C96.3669 38.645 96.3669 39.2781 95.9763 39.6687L92.5917 43.0533C92.2012 43.4438 91.568 43.4438 91.1775 43.0533C90.787 42.6627 90.787 42.0296 91.1775 41.6391L94.5621 38.2544C94.9527 37.8639 95.5858 37.8639 95.9763 38.2544Z" fill="#C91235"/>
</svg>
